<svg width="46" height="45" viewBox="0 0 46 45" fill="none" xmlns="http://www.w3.org/2000/svg">
<path d="M7.63609 28.125C6.12205 28.1584 4.68294 28.7939 3.63415 29.8922C2.58536 30.9904 2.01243 32.4619 2.04093 33.9841C2.04093 38.6951 6.95768 43.2218 7.1668 43.4123C7.2954 43.5293 7.46265 43.5941 7.63609 43.5941C7.80953 43.5941 7.97679 43.5293 8.10538 43.4123C8.3145 43.2218 13.2312 38.6951 13.2312 33.9841C13.2598 32.4619 12.6868 30.9904 11.638 29.8922C10.5892 28.7939 9.15013 28.1584 7.63609 28.125ZM7.63609 41.9062C6.45132 40.6948 3.43972 37.2881 3.43972 33.982C3.4115 32.833 3.83722 31.7196 4.62369 30.8855C5.41016 30.0513 6.49333 29.5644 7.63609 29.5312C8.77923 29.5644 9.86271 30.0516 10.6492 30.8862C11.4358 31.7208 11.8612 32.8348 11.8325 33.9841C11.8325 37.2825 8.81947 40.6948 7.63609 41.9062Z" fill="#446D91"/>
<path d="M7.63584 30.9375C7.08253 30.9375 6.54164 31.1025 6.08159 31.4115C5.62153 31.7205 5.26295 32.1598 5.05121 32.6737C4.83947 33.1876 4.78407 33.7531 4.89201 34.2987C4.99996 34.8443 5.2664 35.3454 5.65765 35.7387C6.0489 36.1321 6.54738 36.3999 7.09006 36.5085C7.63273 36.617 8.19523 36.5613 8.70642 36.3484C9.21762 36.1355 9.65454 35.7751 9.96194 35.3126C10.2693 34.85 10.4334 34.3063 10.4334 33.75C10.4334 33.0041 10.1387 32.2887 9.61402 31.7613C9.08938 31.2338 8.3778 30.9375 7.63584 30.9375ZM7.63584 35.1563C7.35918 35.1563 7.08874 35.0738 6.85871 34.9193C6.62868 34.7647 6.44939 34.5451 6.34352 34.2882C6.23765 34.0312 6.20995 33.7484 6.26392 33.4757C6.3179 33.2029 6.45112 32.9523 6.64674 32.7556C6.84237 32.559 7.09161 32.425 7.36295 32.3708C7.63429 32.3165 7.91554 32.3444 8.17113 32.4508C8.42673 32.5572 8.64519 32.7375 8.79889 32.9687C8.95259 33.2 9.03463 33.4719 9.03463 33.75C9.03463 34.123 8.88725 34.4807 8.62493 34.7444C8.36261 35.0081 8.00682 35.1563 7.63584 35.1563Z" fill="#446D91"/>
<path d="M36.538 20.9095C36.6669 21.0281 36.8353 21.0939 37.0101 21.0939C37.1848 21.0939 37.3533 21.0281 37.4822 20.9095C37.7487 20.6648 44.004 14.8416 44.004 8.81578C44.051 6.90162 43.3413 5.04681 42.0302 3.65789C40.7192 2.26897 38.9139 1.45927 37.0101 1.40625C35.1069 1.45927 33.3021 2.26849 31.9912 3.65665C30.6803 5.0448 29.9701 6.89871 30.0161 8.81227C30.0161 14.8416 36.2715 20.6648 36.538 20.9095ZM37.0101 2.8125C38.5423 2.86554 39.9912 3.5266 41.0398 4.65102C42.0884 5.77544 42.6513 7.27166 42.6052 8.81227C42.6052 13.3165 38.4376 17.9529 37.0101 19.407C35.5826 17.9522 31.4149 13.3165 31.4149 8.81227C31.3689 7.27166 31.9318 5.77544 32.9803 4.65102C34.0289 3.5266 35.4779 2.86554 37.0101 2.8125Z" fill="#446D91"/>
<path d="M40.5074 8.4375C40.5074 7.74218 40.3023 7.06247 39.918 6.48432C39.5338 5.90618 38.9876 5.45558 38.3486 5.18949C37.7097 4.9234 37.0065 4.85378 36.3282 4.98943C35.6498 5.12508 35.0267 5.45991 34.5377 5.95158C34.0486 6.44325 33.7156 7.06967 33.5806 7.75164C33.4457 8.4336 33.5149 9.14048 33.7796 9.78287C34.0443 10.4253 34.4925 10.9743 35.0676 11.3606C35.6427 11.7469 36.3188 11.9531 37.0104 11.9531C37.9375 11.952 38.8263 11.5813 39.4819 10.9222C40.1375 10.2631 40.5063 9.36956 40.5074 8.4375ZM34.9122 8.4375C34.9122 8.02031 35.0353 7.61248 35.2658 7.2656C35.4964 6.91871 35.8241 6.64835 36.2075 6.48869C36.5909 6.32904 37.0127 6.28727 37.4197 6.36866C37.8268 6.45005 38.2006 6.65095 38.4941 6.94595C38.7875 7.24095 38.9873 7.6168 39.0683 8.02598C39.1492 8.43516 39.1077 8.85929 38.9489 9.24472C38.7901 9.63016 38.5211 9.9596 38.1761 10.1914C37.8311 10.4232 37.4254 10.5469 37.0104 10.5469C36.4539 10.5469 35.9203 10.3246 35.5268 9.92905C35.1333 9.53347 34.9122 8.99694 34.9122 8.4375Z" fill="#446D91"/>
<path d="M6.93646 25.3125H8.33525V26.7188H6.93646V25.3125Z" fill="#446D91"/>
<path d="M27.0694 37.1334L27.3058 35.7476C26.496 35.607 25.7141 35.3361 24.9901 34.9453L24.3298 36.1842C25.1861 36.6472 26.1112 36.9677 27.0694 37.1334Z" fill="#446D91"/>
<path d="M37.7105 28.125V26.6357H36.3117V28.125C36.3118 28.4948 36.2858 28.8641 36.2341 29.2303L37.6189 29.4293C37.6801 28.9972 37.7107 28.5614 37.7105 28.125Z" fill="#446D91"/>
<path d="M29.9624 37.1657C30.9237 37.0218 31.8555 36.7231 32.7223 36.2812L32.0928 35.0261C31.3598 35.3996 30.5718 35.6517 29.7589 35.7728L29.9624 37.1657Z" fill="#446D91"/>
<path d="M34.073 33.5791L35.0647 34.5705C35.7498 33.8789 36.3203 33.0816 36.7545 32.2087L35.5033 31.5801C35.1358 32.3189 34.6529 32.9938 34.073 33.5791Z" fill="#446D91"/>
<path d="M17.6574 14.0849L18.589 13.0366C17.8462 12.3661 16.9679 11.8651 16.0145 11.5677L15.5991 12.91C16.3612 13.1484 17.0632 13.5492 17.6574 14.0849Z" fill="#446D91"/>
<path d="M20.3297 15.4414L19.0505 16.0102C19.3724 16.7479 19.5343 17.5461 19.5254 18.3516L20.9242 18.2813C20.9263 17.3033 20.7237 16.3357 20.3297 15.4414Z" fill="#446D91"/>
<path d="M11.0059 13.4845C11.6847 13.0633 12.4464 12.7953 13.2383 12.6991L13.0684 11.3027C12.076 11.4234 11.1215 11.7593 10.2708 12.2871L11.0059 13.4845Z" fill="#446D91"/>
<path d="M9.29551 15.1305L8.13661 14.3438C7.57527 15.1741 7.19926 16.1168 7.03436 17.107L8.41427 17.3405C8.5454 16.5484 8.84608 15.7944 9.29551 15.1305Z" fill="#446D91"/>
<path d="M6.93646 19.9147H8.33525V22.6133H6.93646V19.9147Z" fill="#446D91"/>
<path d="M19.5256 21.0481H20.9244V23.7467H19.5256V21.0481Z" fill="#446D91"/>
<path d="M20.9796 29.0573C20.9429 28.7479 20.9245 28.4366 20.9244 28.125V26.4452H19.5256V28.125C19.5257 28.4927 19.5477 28.8602 19.5913 29.2253L20.9796 29.0573Z" fill="#446D91"/>
<path d="M23.0418 33.4546C22.475 32.856 22.0073 32.17 21.6563 31.4226L20.3911 32.0231C20.806 32.9059 21.3588 33.7163 22.0284 34.4235L23.0418 33.4546Z" fill="#446D91"/>
<path d="M36.311 22.5H37.7098V23.9062H36.311V22.5Z" fill="#446D91"/>
<path d="M5.53764 18.2812C5.53764 16.0435 6.42188 13.8974 7.99582 12.315C9.56976 10.7327 11.7045 9.84375 13.9304 9.84375C16.1563 9.84375 18.291 10.7327 19.8649 12.315C21.4389 13.8974 22.3231 16.0435 22.3231 18.2812V28.125C22.3231 29.8033 22.9863 31.4129 24.1668 32.5997C25.3472 33.7864 26.9483 34.4531 28.6177 34.4531C30.2871 34.4531 31.8881 33.7864 33.0686 32.5997C34.2491 31.4129 34.9122 29.8033 34.9122 28.125V22.5H33.5134V28.125C33.5134 29.4304 32.9976 30.6823 32.0795 31.6053C31.1614 32.5283 29.9161 33.0469 28.6177 33.0469C27.3192 33.0469 26.074 32.5283 25.1558 31.6053C24.2377 30.6823 23.7219 29.4304 23.7219 28.125V18.2812C23.7219 15.6705 22.6903 13.1667 20.854 11.3207C19.0178 9.47461 16.5273 8.4375 13.9304 8.4375C11.3335 8.4375 8.84299 9.47461 7.00673 11.3207C5.17046 13.1667 4.13885 15.6705 4.13885 18.2812V26.7188H5.53764V18.2812Z" fill="#446D91"/>
<path d="M39.1087 28.125C39.1087 30.9222 38.0034 33.6048 36.0359 35.5828C34.0685 37.5607 31.4001 38.6719 28.6177 38.6719C25.8354 38.6719 23.167 37.5607 21.1995 35.5828C19.2321 33.6048 18.1268 30.9222 18.1268 28.125V18.2812C18.1268 17.1624 17.6847 16.0893 16.8977 15.2981C16.1107 14.507 15.0434 14.0625 13.9304 14.0625C12.8175 14.0625 11.7501 14.507 10.9632 15.2981C10.1762 16.0893 9.73407 17.1624 9.73407 18.2812V26.7188H11.1329V18.2812C11.1329 17.5353 11.4276 16.82 11.9523 16.2925C12.4769 15.7651 13.1885 15.4688 13.9304 15.4688C14.6724 15.4688 15.384 15.7651 15.9086 16.2925C16.4333 16.82 16.728 17.5353 16.728 18.2812V28.125C16.728 31.2952 17.9807 34.3355 20.2104 36.5771C22.4402 38.8188 25.4644 40.0781 28.6177 40.0781C31.7711 40.0781 34.7953 38.8188 37.025 36.5771C39.2548 34.3355 40.5074 31.2952 40.5074 28.125V22.5H39.1087V28.125Z" fill="#446D91"/>
</svg>
