<svg width="55" height="54" viewBox="0 0 55 54" fill="none" xmlns="http://www.w3.org/2000/svg">
<g clip-path="url(#clip0)">
<path d="M15.882 30.6H17.6724V32.4H15.882V30.6Z" fill="#446D91"/>
<path d="M19.4634 30.6H21.2538V32.4H19.4634V30.6Z" fill="#446D91"/>
<path d="M23.0441 30.6H24.8345V32.4H23.0441V30.6Z" fill="#446D91"/>
<path d="M15.882 34.2H17.6724V36H15.882V34.2Z" fill="#446D91"/>
<path d="M19.4634 34.2H21.2538V36H19.4634V34.2Z" fill="#446D91"/>
<path d="M23.0441 34.2H24.8345V36H23.0441V34.2Z" fill="#446D91"/>
<path d="M26.6248 34.2H28.4152V36H26.6248V34.2Z" fill="#446D91"/>
<path d="M30.2054 34.2H31.9959V36H30.2054V34.2Z" fill="#446D91"/>
<path d="M15.882 37.8H17.6724V39.6H15.882V37.8Z" fill="#446D91"/>
<path d="M19.4634 37.7999H21.2538V39.5999H19.4634V37.7999Z" fill="#446D91"/>
<path d="M23.0441 37.7999H24.8345V39.5999H23.0441V37.7999Z" fill="#446D91"/>
<path d="M26.6248 37.7999H28.4152V39.5999H26.6248V37.7999Z" fill="#446D91"/>
<path d="M30.2054 37.7999H31.9959V39.5999H30.2054V37.7999Z" fill="#446D91"/>
<path d="M15.882 41.4H17.6724V43.2H15.882V41.4Z" fill="#446D91"/>
<path d="M19.4634 41.3999H21.2538V43.1999H19.4634V41.3999Z" fill="#446D91"/>
<path d="M23.0441 41.3999H24.8345V43.1999H23.0441V41.3999Z" fill="#446D91"/>
<path d="M26.6248 41.3999H28.4152V43.1999H26.6248V41.3999Z" fill="#446D91"/>
<path d="M30.2054 41.3999H31.9959V43.1999H30.2054V41.3999Z" fill="#446D91"/>
<path d="M15.881 44.9999H17.6714V46.7999H15.881V44.9999Z" fill="#446D91"/>
<path d="M19.4634 44.9999H21.2538V46.7999H19.4634V44.9999Z" fill="#446D91"/>
<path d="M23.0441 44.9999H24.8345V46.7999H23.0441V44.9999Z" fill="#446D91"/>
<path d="M26.6248 44.9999H28.4152V46.7999H26.6248V44.9999Z" fill="#446D91"/>
<path d="M30.2054 44.9999H31.9959V46.7999H30.2054V44.9999Z" fill="#446D91"/>
<path d="M15.881 48.5998H17.6714V50.3998H15.881V48.5998Z" fill="#446D91"/>
<path d="M19.4634 48.5998H21.2538V50.3998H19.4634V48.5998Z" fill="#446D91"/>
<path d="M23.0441 48.5998H24.8345V50.3998H23.0441V48.5998Z" fill="#446D91"/>
<path d="M26.6248 48.5998H28.4152V50.3998H26.6248V48.5998Z" fill="#446D91"/>
<path d="M30.2054 48.5998H31.9959V50.3998H30.2054V48.5998Z" fill="#446D91"/>
<path d="M53.481 2.70065H47.2145V0.900665C47.2145 0.403647 46.8137 0.000671387 46.3193 0.000671387H37.3671C36.8727 0.000671387 36.4719 0.403647 36.4719 0.900665V2.70065H1.55837C1.06398 2.70065 0.663147 3.10363 0.663147 3.60065V7.20062C0.663147 7.69808 1.06398 8.10061 1.55837 8.10061H4.24402V25.2005C4.24402 25.698 4.64486 26.1005 5.13924 26.1005C5.63362 26.1005 6.03446 26.5035 6.03446 27.0005C6.03446 27.4979 5.63362 27.9005 5.13924 27.9005C4.64486 27.9005 4.24402 27.4979 4.24402 27.0005H2.45358C2.45621 27.6592 2.69968 28.2942 3.13855 28.7838L0.842365 31.8608L0.853731 31.8696C0.73396 32.0208 0.667081 32.2075 0.663147 32.4004V36.0004C0.663147 36.2395 0.757565 36.468 0.925418 36.6367L2.71586 38.4367C2.88371 38.6055 3.11145 38.7004 3.3488 38.7004H6.92968C7.16703 38.7004 7.39477 38.6055 7.56262 38.4367L9.35306 36.6367C9.52092 36.468 9.61533 36.2395 9.61533 36.0004V32.4004C9.6114 32.2075 9.54452 32.0208 9.42475 31.8696L9.43611 31.8608L7.13993 28.7838C7.73791 28.1158 7.96346 27.1912 7.74097 26.3211C7.51891 25.451 6.8781 24.7505 6.03446 24.4547V8.10061H36.4719V9.00061C36.4719 9.49806 36.8727 9.9006 37.3671 9.9006H39.1575V52.2003H35.5767V16.2006H33.7862V19.8005H28.4149V18.0005H26.6245V19.8005H21.2532V18.9005H19.4627V19.8005H14.0914V17.1005H25.7293V15.3006H14.0914V11.7006H12.301V52.2003H10.8812L6.66741 47.9644C6.31771 47.6129 5.75121 47.6129 5.40151 47.9644L1.18769 52.2003H0.663147V54.0003H54.3763V52.2003H53.6782C54.3081 51.509 54.5319 50.5361 54.2679 49.6365C54.0043 48.7374 53.2913 48.0422 52.3887 47.8049C52.8437 46.6769 52.4923 45.3827 51.5297 44.644C50.5676 43.9052 49.2327 43.9052 48.2706 44.644C47.3081 45.3827 46.9566 46.6769 47.4117 47.8049C46.509 48.0422 45.7961 48.7374 45.5325 49.6365C45.2685 50.5361 45.4923 51.509 46.1222 52.2003H44.5289V9.9006H46.3193C46.8137 9.9006 47.2145 9.49806 47.2145 9.00061V8.10061H53.481C53.9754 8.10061 54.3763 7.69808 54.3763 7.20062V3.60065C54.3763 3.10363 53.9754 2.70065 53.481 2.70065ZM5.58685 29.7005L6.92968 31.5004H3.3488L4.69163 29.7005H5.58685ZM7.8249 35.6282L6.559 36.9004H3.71948L2.45358 35.6282V33.3004H7.8249V35.6282ZM49.6318 4.50064L47.2145 6.12089V4.50064H49.6318ZM38.2623 1.80066H41.8432V5.40063H38.2623V1.80066ZM14.0914 4.68081L16.5087 6.30063H11.6742L14.0914 4.68081ZM8.72011 6.12089L6.30285 4.50064H11.1374L8.72011 6.12089ZM17.0455 4.50064H21.88L19.4627 6.12089L17.0455 4.50064ZM24.834 4.68081L27.2513 6.30063H22.4168L24.834 4.68081ZM27.7881 4.50064H32.6226L30.2054 6.12089L27.7881 4.50064ZM2.45358 4.50064H3.08041L5.76607 6.30063H2.45358V4.50064ZM33.1594 6.30063L35.8451 4.50064H36.4719V6.30063H33.1594ZM42.7384 49.2305L41.1272 46.8003L42.7384 44.3706V49.2305ZM42.7384 27.6307L41.1272 25.2005L42.7384 22.7708V27.6307ZM40.948 28.1707L42.5592 30.6005L40.948 33.0306V28.1707ZM40.948 22.2307V17.3708L42.5592 19.8005L40.948 22.2307ZM40.948 38.9707L42.5592 41.4004L40.948 43.8305V38.9707ZM42.7384 38.4253L41.1272 36.0004L42.7384 33.5707V38.4253ZM41.1272 14.4006L42.7384 11.9708V16.8307L41.1272 14.4006ZM40.948 11.4308V9.9006H41.9612L40.948 11.4308ZM33.7862 21.6005V30.6005H28.4149V21.6005H33.7862ZM26.6245 21.6005V29.3406L24.5657 27.2949C24.3987 27.1292 24.1736 27.0356 23.9388 27.0348H21.2532V21.6005H26.6245ZM19.4627 21.6005V23.1008H14.0914V21.6005H19.4627ZM6.03446 49.873L8.34944 52.2003H3.71948L6.03446 49.873ZM14.0914 52.2003V24.9008H19.4627V27.9383C19.4627 28.4357 19.8636 28.8383 20.358 28.8383H23.5708L26.8929 32.1407C27.0599 32.3064 27.285 32.4 27.5197 32.4004H33.7862V52.2003H14.0914ZM40.948 49.7706L42.5592 52.2003H40.948V49.7706ZM51.6906 51.3003C51.1962 51.3003 50.7954 50.8978 50.7954 50.4003C50.7954 49.9033 51.1962 49.5003 51.6906 49.5003C52.185 49.5003 52.5858 49.9033 52.5858 50.4003C52.5858 50.8978 52.185 51.3003 51.6906 51.3003ZM49.9002 45.9003C50.3945 45.9003 50.7954 46.3033 50.7954 46.8003C50.7954 47.2978 50.3945 47.7003 49.9002 47.7003C49.4058 47.7003 49.0049 47.2978 49.0049 46.8003C49.0049 46.3033 49.4058 45.9003 49.9002 45.9003ZM48.1097 49.5003C48.6041 49.5003 49.0049 49.9033 49.0049 50.4003C49.0049 50.8978 48.6041 51.3003 48.1097 51.3003C47.6153 51.3003 47.2145 50.8978 47.2145 50.4003C47.2145 49.9033 47.6153 49.5003 48.1097 49.5003ZM45.4241 8.10061H38.2623V7.20062H42.7384C43.2328 7.20062 43.6336 6.79808 43.6336 6.30063V1.80066H45.4241V8.10061ZM50.1686 6.30063L52.5858 4.68081V6.30063H50.1686Z" fill="#446D91"/>
</g>
<defs>
<clipPath id="clip0">
<rect x="0.663147" width="53.7135" height="54" fill="white"/>
</clipPath>
</defs>
</svg>
