<svg width="51" height="50" viewBox="0 0 51 50" fill="none" xmlns="http://www.w3.org/2000/svg">
<g id="sewer">
<g clip-path="url(#clip0)">
<g id="Group">
<g id="Group_2">
<g id="Vector">
<mask id="path-2-outside-1" maskUnits="userSpaceOnUse" x="-0.376648" y="-1" width="51" height="52" fill="black">
<rect fill="white" x="-0.376648" y="-1" width="51" height="52"/>
<path d="M25.4907 0C11.7789 0 0.623352 11.215 0.623352 25C0.623352 38.785 11.7789 50 25.4907 50C39.2026 50 50.3581 38.785 50.3581 25C50.3581 11.215 39.2026 0 25.4907 0ZM25.4907 48.3333C12.6932 48.3333 2.28121 37.8658 2.28121 25C2.28121 12.1342 12.6932 1.6667 25.4907 1.6667C38.2883 1.6667 48.7002 12.1342 48.7002 25C48.7002 37.8658 38.2883 48.3333 25.4907 48.3333Z"/>
</mask>
<path d="M25.4907 0C11.7789 0 0.623352 11.215 0.623352 25C0.623352 38.785 11.7789 50 25.4907 50C39.2026 50 50.3581 38.785 50.3581 25C50.3581 11.215 39.2026 0 25.4907 0ZM25.4907 48.3333C12.6932 48.3333 2.28121 37.8658 2.28121 25C2.28121 12.1342 12.6932 1.6667 25.4907 1.6667C38.2883 1.6667 48.7002 12.1342 48.7002 25C48.7002 37.8658 38.2883 48.3333 25.4907 48.3333Z" fill="#446D91"/>
<path d="M25.4907 0C11.7789 0 0.623352 11.215 0.623352 25C0.623352 38.785 11.7789 50 25.4907 50C39.2026 50 50.3581 38.785 50.3581 25C50.3581 11.215 39.2026 0 25.4907 0ZM25.4907 48.3333C12.6932 48.3333 2.28121 37.8658 2.28121 25C2.28121 12.1342 12.6932 1.6667 25.4907 1.6667C38.2883 1.6667 48.7002 12.1342 48.7002 25C48.7002 37.8658 38.2883 48.3333 25.4907 48.3333Z" stroke="#446D91" stroke-width="0.5" mask="url(#path-2-outside-1)"/>
</g>
</g>
</g>
<g id="Group_3">
<g id="Group_4">
<g id="Vector_2">
<mask id="path-3-outside-2" maskUnits="userSpaceOnUse" x="4.04718" y="3.44824" width="43" height="43" fill="black">
<rect fill="white" x="4.04718" y="3.44824" width="43" height="43"/>
<path d="M45.104 27.4999H44.5553C43.1843 27.4999 42.0685 26.3783 42.0685 24.9999C42.0685 23.6216 43.1843 22.4999 44.5553 22.4999H45.104C45.3477 22.4999 45.579 22.3924 45.7365 22.2049C45.8939 22.0174 45.9612 21.77 45.9213 21.5283C44.4624 12.7866 37.6388 5.92738 28.9435 4.4599C28.7023 4.41986 28.457 4.48656 28.2704 4.64574C28.0839 4.80404 27.977 5.03656 27.977 5.28158V5.83324C27.977 7.21156 26.8613 8.33324 25.4903 8.33324C24.1192 8.33324 23.0035 7.21156 23.0035 5.83324V5.28158C23.0035 5.03656 22.8966 4.80404 22.7109 4.64574C22.5236 4.48656 22.2783 4.41907 22.0379 4.4599C13.3425 5.92659 6.51897 12.7866 5.05918 21.5283C5.01935 21.7707 5.08657 22.0174 5.24404 22.2049C5.4015 22.3924 5.63278 22.4999 5.8765 22.4999H6.42524C7.79624 22.4999 8.91197 23.6216 8.91197 24.9999C8.91197 26.3783 7.79624 27.4999 6.42524 27.4999H5.8765C5.63278 27.4999 5.4015 27.6075 5.24326 27.795C5.0858 27.9825 5.01858 28.2299 5.0584 28.4716C6.5181 37.2133 13.3418 44.0725 22.037 45.54C22.2774 45.5817 22.5236 45.5133 22.7101 45.3541C22.8966 45.1958 23.0035 44.9633 23.0035 44.7183V44.1666C23.0035 42.7883 24.1192 41.6666 25.4903 41.6666C26.8613 41.6666 27.977 42.7883 27.977 44.1666V44.7183C27.977 44.9633 28.0839 45.1958 28.2704 45.3541C28.4213 45.4825 28.6111 45.5516 28.806 45.5516C28.8515 45.5516 28.8972 45.5474 28.9436 45.54C37.6389 44.0733 44.4617 37.2133 45.9214 28.4716C45.9613 28.2291 45.894 27.9825 45.7366 27.795C45.5789 27.6075 45.3477 27.4999 45.104 27.4999ZM35.2298 41.4812C32.4479 43.1425 28.7305 39.9999 25.4903 39.9999C22.2501 39.9999 18.5326 43.1425 15.7507 41.4812C13.0077 39.8431 10.7126 37.5334 9.08583 34.7739C7.43777 31.9782 10.5698 28.2453 10.5698 24.9999C10.5698 21.7546 7.43771 18.0216 9.08589 15.226C10.7127 12.4665 13.0079 10.1569 15.7508 8.51881C18.5326 6.85748 22.2501 9.99994 25.4903 9.99994C28.7305 9.99994 32.4479 6.85736 35.2298 8.51867C37.9729 10.1568 40.2681 12.4667 41.8946 15.2264C43.5424 18.0221 40.4107 21.7548 40.4107 24.9999C40.4107 28.2451 43.5424 31.9778 41.8947 34.7735C40.2681 37.5332 37.9729 39.8431 35.2298 41.4812Z"/>
</mask>
<path d="M45.104 27.4999H44.5553C43.1843 27.4999 42.0685 26.3783 42.0685 24.9999C42.0685 23.6216 43.1843 22.4999 44.5553 22.4999H45.104C45.3477 22.4999 45.579 22.3924 45.7365 22.2049C45.8939 22.0174 45.9612 21.77 45.9213 21.5283C44.4624 12.7866 37.6388 5.92738 28.9435 4.4599C28.7023 4.41986 28.457 4.48656 28.2704 4.64574C28.0839 4.80404 27.977 5.03656 27.977 5.28158V5.83324C27.977 7.21156 26.8613 8.33324 25.4903 8.33324C24.1192 8.33324 23.0035 7.21156 23.0035 5.83324V5.28158C23.0035 5.03656 22.8966 4.80404 22.7109 4.64574C22.5236 4.48656 22.2783 4.41907 22.0379 4.4599C13.3425 5.92659 6.51897 12.7866 5.05918 21.5283C5.01935 21.7707 5.08657 22.0174 5.24404 22.2049C5.4015 22.3924 5.63278 22.4999 5.8765 22.4999H6.42524C7.79624 22.4999 8.91197 23.6216 8.91197 24.9999C8.91197 26.3783 7.79624 27.4999 6.42524 27.4999H5.8765C5.63278 27.4999 5.4015 27.6075 5.24326 27.795C5.0858 27.9825 5.01858 28.2299 5.0584 28.4716C6.5181 37.2133 13.3418 44.0725 22.037 45.54C22.2774 45.5817 22.5236 45.5133 22.7101 45.3541C22.8966 45.1958 23.0035 44.9633 23.0035 44.7183V44.1666C23.0035 42.7883 24.1192 41.6666 25.4903 41.6666C26.8613 41.6666 27.977 42.7883 27.977 44.1666V44.7183C27.977 44.9633 28.0839 45.1958 28.2704 45.3541C28.4213 45.4825 28.6111 45.5516 28.806 45.5516C28.8515 45.5516 28.8972 45.5474 28.9436 45.54C37.6389 44.0733 44.4617 37.2133 45.9214 28.4716C45.9613 28.2291 45.894 27.9825 45.7366 27.795C45.5789 27.6075 45.3477 27.4999 45.104 27.4999ZM35.2298 41.4812C32.4479 43.1425 28.7305 39.9999 25.4903 39.9999C22.2501 39.9999 18.5326 43.1425 15.7507 41.4812C13.0077 39.8431 10.7126 37.5334 9.08583 34.7739C7.43777 31.9782 10.5698 28.2453 10.5698 24.9999C10.5698 21.7546 7.43771 18.0216 9.08589 15.226C10.7127 12.4665 13.0079 10.1569 15.7508 8.51881C18.5326 6.85748 22.2501 9.99994 25.4903 9.99994C28.7305 9.99994 32.4479 6.85736 35.2298 8.51867C37.9729 10.1568 40.2681 12.4667 41.8946 15.2264C43.5424 18.0221 40.4107 21.7548 40.4107 24.9999C40.4107 28.2451 43.5424 31.9778 41.8947 34.7735C40.2681 37.5332 37.9729 39.8431 35.2298 41.4812Z" fill="#446D91"/>
<path d="M45.104 27.4999H44.5553C43.1843 27.4999 42.0685 26.3783 42.0685 24.9999C42.0685 23.6216 43.1843 22.4999 44.5553 22.4999H45.104C45.3477 22.4999 45.579 22.3924 45.7365 22.2049C45.8939 22.0174 45.9612 21.77 45.9213 21.5283C44.4624 12.7866 37.6388 5.92738 28.9435 4.4599C28.7023 4.41986 28.457 4.48656 28.2704 4.64574C28.0839 4.80404 27.977 5.03656 27.977 5.28158V5.83324C27.977 7.21156 26.8613 8.33324 25.4903 8.33324C24.1192 8.33324 23.0035 7.21156 23.0035 5.83324V5.28158C23.0035 5.03656 22.8966 4.80404 22.7109 4.64574C22.5236 4.48656 22.2783 4.41907 22.0379 4.4599C13.3425 5.92659 6.51897 12.7866 5.05918 21.5283C5.01935 21.7707 5.08657 22.0174 5.24404 22.2049C5.4015 22.3924 5.63278 22.4999 5.8765 22.4999H6.42524C7.79624 22.4999 8.91197 23.6216 8.91197 24.9999C8.91197 26.3783 7.79624 27.4999 6.42524 27.4999H5.8765C5.63278 27.4999 5.4015 27.6075 5.24326 27.795C5.0858 27.9825 5.01858 28.2299 5.0584 28.4716C6.5181 37.2133 13.3418 44.0725 22.037 45.54C22.2774 45.5817 22.5236 45.5133 22.7101 45.3541C22.8966 45.1958 23.0035 44.9633 23.0035 44.7183V44.1666C23.0035 42.7883 24.1192 41.6666 25.4903 41.6666C26.8613 41.6666 27.977 42.7883 27.977 44.1666V44.7183C27.977 44.9633 28.0839 45.1958 28.2704 45.3541C28.4213 45.4825 28.6111 45.5516 28.806 45.5516C28.8515 45.5516 28.8972 45.5474 28.9436 45.54C37.6389 44.0733 44.4617 37.2133 45.9214 28.4716C45.9613 28.2291 45.894 27.9825 45.7366 27.795C45.5789 27.6075 45.3477 27.4999 45.104 27.4999ZM35.2298 41.4812C32.4479 43.1425 28.7305 39.9999 25.4903 39.9999C22.2501 39.9999 18.5326 43.1425 15.7507 41.4812C13.0077 39.8431 10.7126 37.5334 9.08583 34.7739C7.43777 31.9782 10.5698 28.2453 10.5698 24.9999C10.5698 21.7546 7.43771 18.0216 9.08589 15.226C10.7127 12.4665 13.0079 10.1569 15.7508 8.51881C18.5326 6.85748 22.2501 9.99994 25.4903 9.99994C28.7305 9.99994 32.4479 6.85736 35.2298 8.51867C37.9729 10.1568 40.2681 12.4667 41.8946 15.2264C43.5424 18.0221 40.4107 21.7548 40.4107 24.9999C40.4107 28.2451 43.5424 31.9778 41.8947 34.7735C40.2681 37.5332 37.9729 39.8431 35.2298 41.4812Z" stroke="#446D91" stroke-width="0.5" mask="url(#path-3-outside-2)"/>
</g>
</g>
</g>
<g id="Group_5">
<g id="Group_6">
<g id="Vector_3">
<mask id="path-4-outside-3" maskUnits="userSpaceOnUse" x="13.7148" y="14" width="3" height="6" fill="black">
<rect fill="white" x="13.7148" y="14" width="3" height="6"/>
<path d="M15.5437 15C15.0862 15 14.7148 15.3733 14.7148 15.8333V18.3333C14.7148 18.7933 15.0862 19.1666 15.5437 19.1666C16.0012 19.1666 16.3726 18.7933 16.3726 18.3333V15.8333C16.3726 15.3733 16.0012 15 15.5437 15Z"/>
</mask>
<path d="M15.5437 15C15.0862 15 14.7148 15.3733 14.7148 15.8333V18.3333C14.7148 18.7933 15.0862 19.1666 15.5437 19.1666C16.0012 19.1666 16.3726 18.7933 16.3726 18.3333V15.8333C16.3726 15.3733 16.0012 15 15.5437 15Z" fill="#446D91"/>
<path d="M15.5437 15C15.0862 15 14.7148 15.3733 14.7148 15.8333V18.3333C14.7148 18.7933 15.0862 19.1666 15.5437 19.1666C16.0012 19.1666 16.3726 18.7933 16.3726 18.3333V15.8333C16.3726 15.3733 16.0012 15 15.5437 15Z" stroke="#446D91" stroke-width="0.5" mask="url(#path-4-outside-3)"/>
</g>
</g>
</g>
<g id="Group_7">
<g id="Group_8">
<g id="Vector_4">
<mask id="path-5-outside-4" maskUnits="userSpaceOnUse" x="17.0306" y="14" width="3" height="6" fill="black">
<rect fill="white" x="17.0306" y="14" width="3" height="6"/>
<path d="M18.8595 15C18.4019 15 18.0306 15.3733 18.0306 15.8333V18.3333C18.0306 18.7933 18.4019 19.1666 18.8595 19.1666C19.317 19.1666 19.6883 18.7933 19.6883 18.3333V15.8333C19.6884 15.3733 19.3171 15 18.8595 15Z"/>
</mask>
<path d="M18.8595 15C18.4019 15 18.0306 15.3733 18.0306 15.8333V18.3333C18.0306 18.7933 18.4019 19.1666 18.8595 19.1666C19.317 19.1666 19.6883 18.7933 19.6883 18.3333V15.8333C19.6884 15.3733 19.3171 15 18.8595 15Z" fill="#446D91"/>
<path d="M18.8595 15C18.4019 15 18.0306 15.3733 18.0306 15.8333V18.3333C18.0306 18.7933 18.4019 19.1666 18.8595 19.1666C19.317 19.1666 19.6883 18.7933 19.6883 18.3333V15.8333C19.6884 15.3733 19.3171 15 18.8595 15Z" stroke="#446D91" stroke-width="0.5" mask="url(#path-5-outside-4)"/>
</g>
</g>
</g>
<g id="Group_9">
<g id="Group_10">
<g id="Vector_5">
<mask id="path-6-outside-5" maskUnits="userSpaceOnUse" x="13.7148" y="21.5" width="7" height="3" fill="black">
<rect fill="white" x="13.7148" y="21.5" width="7" height="3"/>
<path d="M18.8593 22.5H15.5437C15.0862 22.5 14.7148 22.8733 14.7148 23.3333C14.7148 23.7933 15.0862 24.1666 15.5437 24.1666H18.8593C19.3169 24.1666 19.6882 23.7933 19.6882 23.3333C19.6882 22.8733 19.317 22.5 18.8593 22.5Z"/>
</mask>
<path d="M18.8593 22.5H15.5437C15.0862 22.5 14.7148 22.8733 14.7148 23.3333C14.7148 23.7933 15.0862 24.1666 15.5437 24.1666H18.8593C19.3169 24.1666 19.6882 23.7933 19.6882 23.3333C19.6882 22.8733 19.317 22.5 18.8593 22.5Z" fill="#446D91"/>
<path d="M18.8593 22.5H15.5437C15.0862 22.5 14.7148 22.8733 14.7148 23.3333C14.7148 23.7933 15.0862 24.1666 15.5437 24.1666H18.8593C19.3169 24.1666 19.6882 23.7933 19.6882 23.3333C19.6882 22.8733 19.317 22.5 18.8593 22.5Z" stroke="#446D91" stroke-width="0.5" mask="url(#path-6-outside-5)"/>
</g>
</g>
</g>
<g id="Group_11">
<g id="Group_12">
<g id="Vector_6">
<mask id="path-7-outside-6" maskUnits="userSpaceOnUse" x="13.7148" y="24.8333" width="7" height="3" fill="black">
<rect fill="white" x="13.7148" y="24.8333" width="7" height="3"/>
<path d="M18.8593 25.8333H15.5437C15.0862 25.8333 14.7148 26.2067 14.7148 26.6666C14.7148 27.1266 15.0862 27.4999 15.5437 27.4999H18.8593C19.3169 27.4999 19.6882 27.1266 19.6882 26.6666C19.6883 26.2067 19.317 25.8333 18.8593 25.8333Z"/>
</mask>
<path d="M18.8593 25.8333H15.5437C15.0862 25.8333 14.7148 26.2067 14.7148 26.6666C14.7148 27.1266 15.0862 27.4999 15.5437 27.4999H18.8593C19.3169 27.4999 19.6882 27.1266 19.6882 26.6666C19.6883 26.2067 19.317 25.8333 18.8593 25.8333Z" fill="#446D91"/>
<path d="M18.8593 25.8333H15.5437C15.0862 25.8333 14.7148 26.2067 14.7148 26.6666C14.7148 27.1266 15.0862 27.4999 15.5437 27.4999H18.8593C19.3169 27.4999 19.6882 27.1266 19.6882 26.6666C19.6883 26.2067 19.317 25.8333 18.8593 25.8333Z" stroke="#446D91" stroke-width="0.5" mask="url(#path-7-outside-6)"/>
</g>
</g>
</g>
<g id="Group_13">
<g id="Group_14">
<g id="Vector_7">
<mask id="path-8-outside-7" maskUnits="userSpaceOnUse" x="22.0039" y="14" width="3" height="6" fill="black">
<rect fill="white" x="22.0039" y="14" width="3" height="6"/>
<path d="M23.8328 15C23.3753 15 23.0039 15.3733 23.0039 15.8333V18.3333C23.0039 18.7933 23.3753 19.1666 23.8328 19.1666C24.2903 19.1666 24.6617 18.7933 24.6617 18.3333V15.8333C24.6618 15.3733 24.2904 15 23.8328 15Z"/>
</mask>
<path d="M23.8328 15C23.3753 15 23.0039 15.3733 23.0039 15.8333V18.3333C23.0039 18.7933 23.3753 19.1666 23.8328 19.1666C24.2903 19.1666 24.6617 18.7933 24.6617 18.3333V15.8333C24.6618 15.3733 24.2904 15 23.8328 15Z" fill="#446D91"/>
<path d="M23.8328 15C23.3753 15 23.0039 15.3733 23.0039 15.8333V18.3333C23.0039 18.7933 23.3753 19.1666 23.8328 19.1666C24.2903 19.1666 24.6617 18.7933 24.6617 18.3333V15.8333C24.6618 15.3733 24.2904 15 23.8328 15Z" stroke="#446D91" stroke-width="0.5" mask="url(#path-8-outside-7)"/>
</g>
</g>
</g>
<g id="Group_15">
<g id="Group_16">
<g id="Vector_8">
<mask id="path-9-outside-8" maskUnits="userSpaceOnUse" x="25.3198" y="14" width="3" height="6" fill="black">
<rect fill="white" x="25.3198" y="14" width="3" height="6"/>
<path d="M27.1486 15C26.6911 15 26.3198 15.3733 26.3198 15.8333V18.3333C26.3198 18.7933 26.6911 19.1666 27.1486 19.1666C27.6062 19.1666 27.9775 18.7933 27.9775 18.3333V15.8333C27.9775 15.3733 27.6062 15 27.1486 15Z"/>
</mask>
<path d="M27.1486 15C26.6911 15 26.3198 15.3733 26.3198 15.8333V18.3333C26.3198 18.7933 26.6911 19.1666 27.1486 19.1666C27.6062 19.1666 27.9775 18.7933 27.9775 18.3333V15.8333C27.9775 15.3733 27.6062 15 27.1486 15Z" fill="#446D91"/>
<path d="M27.1486 15C26.6911 15 26.3198 15.3733 26.3198 15.8333V18.3333C26.3198 18.7933 26.6911 19.1666 27.1486 19.1666C27.6062 19.1666 27.9775 18.7933 27.9775 18.3333V15.8333C27.9775 15.3733 27.6062 15 27.1486 15Z" stroke="#446D91" stroke-width="0.5" mask="url(#path-9-outside-8)"/>
</g>
</g>
</g>
<g id="Group_17">
<g id="Group_18">
<g id="Vector_9">
<mask id="path-10-outside-9" maskUnits="userSpaceOnUse" x="22.004" y="21.5" width="7" height="3" fill="black">
<rect fill="white" x="22.004" y="21.5" width="7" height="3"/>
<path d="M27.1485 22.5H23.8329C23.3754 22.5 23.004 22.8733 23.004 23.3333C23.004 23.7933 23.3754 24.1666 23.8329 24.1666H27.1485C27.606 24.1666 27.9774 23.7933 27.9774 23.3333C27.9774 22.8733 27.606 22.5 27.1485 22.5Z"/>
</mask>
<path d="M27.1485 22.5H23.8329C23.3754 22.5 23.004 22.8733 23.004 23.3333C23.004 23.7933 23.3754 24.1666 23.8329 24.1666H27.1485C27.606 24.1666 27.9774 23.7933 27.9774 23.3333C27.9774 22.8733 27.606 22.5 27.1485 22.5Z" fill="#446D91"/>
<path d="M27.1485 22.5H23.8329C23.3754 22.5 23.004 22.8733 23.004 23.3333C23.004 23.7933 23.3754 24.1666 23.8329 24.1666H27.1485C27.606 24.1666 27.9774 23.7933 27.9774 23.3333C27.9774 22.8733 27.606 22.5 27.1485 22.5Z" stroke="#446D91" stroke-width="0.5" mask="url(#path-10-outside-9)"/>
</g>
</g>
</g>
<g id="Group_19">
<g id="Group_20">
<g id="Vector_10">
<mask id="path-11-outside-10" maskUnits="userSpaceOnUse" x="22.004" y="24.8333" width="7" height="3" fill="black">
<rect fill="white" x="22.004" y="24.8333" width="7" height="3"/>
<path d="M27.1485 25.8333H23.8329C23.3754 25.8333 23.004 26.2067 23.004 26.6666C23.004 27.1266 23.3754 27.4999 23.8329 27.4999H27.1485C27.606 27.4999 27.9774 27.1266 27.9774 26.6666C27.9774 26.2067 27.606 25.8333 27.1485 25.8333Z"/>
</mask>
<path d="M27.1485 25.8333H23.8329C23.3754 25.8333 23.004 26.2067 23.004 26.6666C23.004 27.1266 23.3754 27.4999 23.8329 27.4999H27.1485C27.606 27.4999 27.9774 27.1266 27.9774 26.6666C27.9774 26.2067 27.606 25.8333 27.1485 25.8333Z" fill="#446D91"/>
<path d="M27.1485 25.8333H23.8329C23.3754 25.8333 23.004 26.2067 23.004 26.6666C23.004 27.1266 23.3754 27.4999 23.8329 27.4999H27.1485C27.606 27.4999 27.9774 27.1266 27.9774 26.6666C27.9774 26.2067 27.606 25.8333 27.1485 25.8333Z" stroke="#446D91" stroke-width="0.5" mask="url(#path-11-outside-10)"/>
</g>
</g>
</g>
<g id="Group_21">
<g id="Group_22">
<g id="Vector_11">
<mask id="path-12-outside-11" maskUnits="userSpaceOnUse" x="13.7148" y="29.8333" width="3" height="6" fill="black">
<rect fill="white" x="13.7148" y="29.8333" width="3" height="6"/>
<path d="M15.5437 30.8333C15.0862 30.8333 14.7148 31.2067 14.7148 31.6666V34.1666C14.7148 34.6266 15.0862 34.9999 15.5437 34.9999C16.0012 34.9999 16.3726 34.6266 16.3726 34.1666V31.6666C16.3726 31.2067 16.0012 30.8333 15.5437 30.8333Z"/>
</mask>
<path d="M15.5437 30.8333C15.0862 30.8333 14.7148 31.2067 14.7148 31.6666V34.1666C14.7148 34.6266 15.0862 34.9999 15.5437 34.9999C16.0012 34.9999 16.3726 34.6266 16.3726 34.1666V31.6666C16.3726 31.2067 16.0012 30.8333 15.5437 30.8333Z" fill="#446D91"/>
<path d="M15.5437 30.8333C15.0862 30.8333 14.7148 31.2067 14.7148 31.6666V34.1666C14.7148 34.6266 15.0862 34.9999 15.5437 34.9999C16.0012 34.9999 16.3726 34.6266 16.3726 34.1666V31.6666C16.3726 31.2067 16.0012 30.8333 15.5437 30.8333Z" stroke="#446D91" stroke-width="0.5" mask="url(#path-12-outside-11)"/>
</g>
</g>
</g>
<g id="Group_23">
<g id="Group_24">
<g id="Vector_12">
<mask id="path-13-outside-12" maskUnits="userSpaceOnUse" x="17.0306" y="29.8333" width="3" height="6" fill="black">
<rect fill="white" x="17.0306" y="29.8333" width="3" height="6"/>
<path d="M18.8595 30.8333C18.4019 30.8333 18.0306 31.2067 18.0306 31.6666V34.1666C18.0306 34.6266 18.4019 34.9999 18.8595 34.9999C19.317 34.9999 19.6883 34.6266 19.6883 34.1666V31.6666C19.6884 31.2067 19.3171 30.8333 18.8595 30.8333Z"/>
</mask>
<path d="M18.8595 30.8333C18.4019 30.8333 18.0306 31.2067 18.0306 31.6666V34.1666C18.0306 34.6266 18.4019 34.9999 18.8595 34.9999C19.317 34.9999 19.6883 34.6266 19.6883 34.1666V31.6666C19.6884 31.2067 19.3171 30.8333 18.8595 30.8333Z" fill="#446D91"/>
<path d="M18.8595 30.8333C18.4019 30.8333 18.0306 31.2067 18.0306 31.6666V34.1666C18.0306 34.6266 18.4019 34.9999 18.8595 34.9999C19.317 34.9999 19.6883 34.6266 19.6883 34.1666V31.6666C19.6884 31.2067 19.3171 30.8333 18.8595 30.8333Z" stroke="#446D91" stroke-width="0.5" mask="url(#path-13-outside-12)"/>
</g>
</g>
</g>
<g id="Group_25">
<g id="Group_26">
<g id="Vector_13">
<mask id="path-14-outside-13" maskUnits="userSpaceOnUse" x="22.0039" y="29.8333" width="3" height="6" fill="black">
<rect fill="white" x="22.0039" y="29.8333" width="3" height="6"/>
<path d="M23.8328 30.8333C23.3753 30.8333 23.0039 31.2067 23.0039 31.6666V34.1666C23.0039 34.6266 23.3753 34.9999 23.8328 34.9999C24.2903 34.9999 24.6617 34.6266 24.6617 34.1666V31.6666C24.6618 31.2067 24.2904 30.8333 23.8328 30.8333Z"/>
</mask>
<path d="M23.8328 30.8333C23.3753 30.8333 23.0039 31.2067 23.0039 31.6666V34.1666C23.0039 34.6266 23.3753 34.9999 23.8328 34.9999C24.2903 34.9999 24.6617 34.6266 24.6617 34.1666V31.6666C24.6618 31.2067 24.2904 30.8333 23.8328 30.8333Z" fill="#446D91"/>
<path d="M23.8328 30.8333C23.3753 30.8333 23.0039 31.2067 23.0039 31.6666V34.1666C23.0039 34.6266 23.3753 34.9999 23.8328 34.9999C24.2903 34.9999 24.6617 34.6266 24.6617 34.1666V31.6666C24.6618 31.2067 24.2904 30.8333 23.8328 30.8333Z" stroke="#446D91" stroke-width="0.5" mask="url(#path-14-outside-13)"/>
</g>
</g>
</g>
<g id="Group_27">
<g id="Group_28">
<g id="Vector_14">
<mask id="path-15-outside-14" maskUnits="userSpaceOnUse" x="25.3198" y="29.8333" width="3" height="6" fill="black">
<rect fill="white" x="25.3198" y="29.8333" width="3" height="6"/>
<path d="M27.1486 30.8333C26.6911 30.8333 26.3198 31.2067 26.3198 31.6666V34.1666C26.3198 34.6266 26.6911 34.9999 27.1486 34.9999C27.6062 34.9999 27.9775 34.6266 27.9775 34.1666V31.6666C27.9775 31.2067 27.6062 30.8333 27.1486 30.8333Z"/>
</mask>
<path d="M27.1486 30.8333C26.6911 30.8333 26.3198 31.2067 26.3198 31.6666V34.1666C26.3198 34.6266 26.6911 34.9999 27.1486 34.9999C27.6062 34.9999 27.9775 34.6266 27.9775 34.1666V31.6666C27.9775 31.2067 27.6062 30.8333 27.1486 30.8333Z" fill="#446D91"/>
<path d="M27.1486 30.8333C26.6911 30.8333 26.3198 31.2067 26.3198 31.6666V34.1666C26.3198 34.6266 26.6911 34.9999 27.1486 34.9999C27.6062 34.9999 27.9775 34.6266 27.9775 34.1666V31.6666C27.9775 31.2067 27.6062 30.8333 27.1486 30.8333Z" stroke="#446D91" stroke-width="0.5" mask="url(#path-15-outside-14)"/>
</g>
</g>
</g>
<g id="Group_29">
<g id="Group_30">
<g id="Vector_15">
<mask id="path-16-outside-15" maskUnits="userSpaceOnUse" x="30.2931" y="14" width="3" height="6" fill="black">
<rect fill="white" x="30.2931" y="14" width="3" height="6"/>
<path d="M32.122 15C31.6645 15 31.2931 15.3733 31.2931 15.8333V18.3333C31.2931 18.7933 31.6645 19.1666 32.122 19.1666C32.5795 19.1666 32.9509 18.7933 32.9509 18.3333V15.8333C32.9509 15.3733 32.5795 15 32.122 15Z"/>
</mask>
<path d="M32.122 15C31.6645 15 31.2931 15.3733 31.2931 15.8333V18.3333C31.2931 18.7933 31.6645 19.1666 32.122 19.1666C32.5795 19.1666 32.9509 18.7933 32.9509 18.3333V15.8333C32.9509 15.3733 32.5795 15 32.122 15Z" fill="#446D91"/>
<path d="M32.122 15C31.6645 15 31.2931 15.3733 31.2931 15.8333V18.3333C31.2931 18.7933 31.6645 19.1666 32.122 19.1666C32.5795 19.1666 32.9509 18.7933 32.9509 18.3333V15.8333C32.9509 15.3733 32.5795 15 32.122 15Z" stroke="#446D91" stroke-width="0.5" mask="url(#path-16-outside-15)"/>
</g>
</g>
</g>
<g id="Group_31">
<g id="Group_32">
<g id="Vector_16">
<mask id="path-17-outside-16" maskUnits="userSpaceOnUse" x="33.6089" y="14" width="3" height="6" fill="black">
<rect fill="white" x="33.6089" y="14" width="3" height="6"/>
<path d="M35.4377 15C34.9802 15 34.6089 15.3733 34.6089 15.8333V18.3333C34.6089 18.7933 34.9802 19.1666 35.4377 19.1666C35.8953 19.1666 36.2666 18.7933 36.2666 18.3333V15.8333C36.2666 15.3733 35.8953 15 35.4377 15Z"/>
</mask>
<path d="M35.4377 15C34.9802 15 34.6089 15.3733 34.6089 15.8333V18.3333C34.6089 18.7933 34.9802 19.1666 35.4377 19.1666C35.8953 19.1666 36.2666 18.7933 36.2666 18.3333V15.8333C36.2666 15.3733 35.8953 15 35.4377 15Z" fill="#446D91"/>
<path d="M35.4377 15C34.9802 15 34.6089 15.3733 34.6089 15.8333V18.3333C34.6089 18.7933 34.9802 19.1666 35.4377 19.1666C35.8953 19.1666 36.2666 18.7933 36.2666 18.3333V15.8333C36.2666 15.3733 35.8953 15 35.4377 15Z" stroke="#446D91" stroke-width="0.5" mask="url(#path-17-outside-16)"/>
</g>
</g>
</g>
<g id="Group_33">
<g id="Group_34">
<g id="Vector_17">
<mask id="path-18-outside-17" maskUnits="userSpaceOnUse" x="30.2931" y="21.5" width="7" height="3" fill="black">
<rect fill="white" x="30.2931" y="21.5" width="7" height="3"/>
<path d="M35.4376 22.5H32.122C31.6645 22.5 31.2931 22.8733 31.2931 23.3333C31.2931 23.7933 31.6645 24.1666 32.122 24.1666H35.4376C35.8951 24.1666 36.2665 23.7933 36.2665 23.3333C36.2665 22.8733 35.8951 22.5 35.4376 22.5Z"/>
</mask>
<path d="M35.4376 22.5H32.122C31.6645 22.5 31.2931 22.8733 31.2931 23.3333C31.2931 23.7933 31.6645 24.1666 32.122 24.1666H35.4376C35.8951 24.1666 36.2665 23.7933 36.2665 23.3333C36.2665 22.8733 35.8951 22.5 35.4376 22.5Z" fill="#446D91"/>
<path d="M35.4376 22.5H32.122C31.6645 22.5 31.2931 22.8733 31.2931 23.3333C31.2931 23.7933 31.6645 24.1666 32.122 24.1666H35.4376C35.8951 24.1666 36.2665 23.7933 36.2665 23.3333C36.2665 22.8733 35.8951 22.5 35.4376 22.5Z" stroke="#446D91" stroke-width="0.5" mask="url(#path-18-outside-17)"/>
</g>
</g>
</g>
<g id="Group_35">
<g id="Group_36">
<g id="Vector_18">
<mask id="path-19-outside-18" maskUnits="userSpaceOnUse" x="30.2931" y="24.8333" width="7" height="3" fill="black">
<rect fill="white" x="30.2931" y="24.8333" width="7" height="3"/>
<path d="M35.4376 25.8333H32.122C31.6645 25.8333 31.2931 26.2067 31.2931 26.6666C31.2931 27.1266 31.6645 27.4999 32.122 27.4999H35.4376C35.8951 27.4999 36.2665 27.1266 36.2665 26.6666C36.2665 26.2067 35.8951 25.8333 35.4376 25.8333Z"/>
</mask>
<path d="M35.4376 25.8333H32.122C31.6645 25.8333 31.2931 26.2067 31.2931 26.6666C31.2931 27.1266 31.6645 27.4999 32.122 27.4999H35.4376C35.8951 27.4999 36.2665 27.1266 36.2665 26.6666C36.2665 26.2067 35.8951 25.8333 35.4376 25.8333Z" fill="#446D91"/>
<path d="M35.4376 25.8333H32.122C31.6645 25.8333 31.2931 26.2067 31.2931 26.6666C31.2931 27.1266 31.6645 27.4999 32.122 27.4999H35.4376C35.8951 27.4999 36.2665 27.1266 36.2665 26.6666C36.2665 26.2067 35.8951 25.8333 35.4376 25.8333Z" stroke="#446D91" stroke-width="0.5" mask="url(#path-19-outside-18)"/>
</g>
</g>
</g>
<g id="Group_37">
<g id="Group_38">
<g id="Vector_19">
<mask id="path-20-outside-19" maskUnits="userSpaceOnUse" x="30.2931" y="29.8333" width="3" height="6" fill="black">
<rect fill="white" x="30.2931" y="29.8333" width="3" height="6"/>
<path d="M32.122 30.8333C31.6645 30.8333 31.2931 31.2067 31.2931 31.6666V34.1666C31.2931 34.6266 31.6645 34.9999 32.122 34.9999C32.5795 34.9999 32.9509 34.6266 32.9509 34.1666V31.6666C32.9509 31.2067 32.5795 30.8333 32.122 30.8333Z"/>
</mask>
<path d="M32.122 30.8333C31.6645 30.8333 31.2931 31.2067 31.2931 31.6666V34.1666C31.2931 34.6266 31.6645 34.9999 32.122 34.9999C32.5795 34.9999 32.9509 34.6266 32.9509 34.1666V31.6666C32.9509 31.2067 32.5795 30.8333 32.122 30.8333Z" fill="#446D91"/>
<path d="M32.122 30.8333C31.6645 30.8333 31.2931 31.2067 31.2931 31.6666V34.1666C31.2931 34.6266 31.6645 34.9999 32.122 34.9999C32.5795 34.9999 32.9509 34.6266 32.9509 34.1666V31.6666C32.9509 31.2067 32.5795 30.8333 32.122 30.8333Z" stroke="#446D91" stroke-width="0.5" mask="url(#path-20-outside-19)"/>
</g>
</g>
</g>
<g id="Group_39">
<g id="Group_40">
<g id="Vector_20">
<mask id="path-21-outside-20" maskUnits="userSpaceOnUse" x="33.6089" y="29.8333" width="3" height="6" fill="black">
<rect fill="white" x="33.6089" y="29.8333" width="3" height="6"/>
<path d="M35.4377 30.8333C34.9802 30.8333 34.6089 31.2067 34.6089 31.6666V34.1666C34.6089 34.6266 34.9802 34.9999 35.4377 34.9999C35.8953 34.9999 36.2666 34.6266 36.2666 34.1666V31.6666C36.2666 31.2067 35.8953 30.8333 35.4377 30.8333Z"/>
</mask>
<path d="M35.4377 30.8333C34.9802 30.8333 34.6089 31.2067 34.6089 31.6666V34.1666C34.6089 34.6266 34.9802 34.9999 35.4377 34.9999C35.8953 34.9999 36.2666 34.6266 36.2666 34.1666V31.6666C36.2666 31.2067 35.8953 30.8333 35.4377 30.8333Z" fill="#446D91"/>
<path d="M35.4377 30.8333C34.9802 30.8333 34.6089 31.2067 34.6089 31.6666V34.1666C34.6089 34.6266 34.9802 34.9999 35.4377 34.9999C35.8953 34.9999 36.2666 34.6266 36.2666 34.1666V31.6666C36.2666 31.2067 35.8953 30.8333 35.4377 30.8333Z" stroke="#446D91" stroke-width="0.5" mask="url(#path-21-outside-20)"/>
</g>
</g>
</g>
</g>
</g>
<defs>
<clipPath id="clip0">
<rect x="0.623352" width="49.7347" height="50" fill="white"/>
</clipPath>
</defs>
</svg>
