<svg width="65" height="55.5" viewBox="0 0 65 55.5" fill="none" xmlns="http://www.w3.org/2000/svg">
<g clip-path="url(#clip0)">
<path d="M56.82 29.6575C54.6538 28.5688 50.5923 28.5562 50.4205 28.5562C49.9055 28.5562 49.488 28.9759 49.488 29.4937C49.488 30.0114 49.9055 30.4312 50.4205 30.4312C51.4685 30.4313 54.5114 30.5935 55.9859 31.3347C56.1199 31.402 56.2621 31.4338 56.4022 31.4338C56.7443 31.4338 57.0736 31.2438 57.237 30.9154C57.4674 30.4523 57.2807 29.8892 56.82 29.6575Z" fill="#446D91"/>
<path d="M61.4698 43.0051L57.6185 41.8988C57.4523 41.8511 57.3361 41.6963 57.3361 41.5224V40.2301C57.6495 40.0118 57.9484 39.7676 58.2278 39.4949C59.5818 38.1739 60.3274 36.4021 60.3274 34.5056V32.7222L60.6998 31.9736C61.1085 31.1517 61.3245 30.2316 61.3245 29.3128V24.4816C61.3245 23.9638 60.907 23.5441 60.392 23.5441H51.4182C48.1551 23.5441 45.5003 26.2131 45.5003 29.4936V29.5494C45.5003 30.3134 45.6799 31.0786 46.0197 31.7618L46.4973 32.7221V34.2533C46.4973 36.6801 47.6868 38.8574 49.4886 40.1677L49.4889 41.5222C49.4889 41.7311 49.4889 41.8176 48.7188 42.0388L46.8396 42.5786L41.4035 40.5913C41.423 40.3334 41.3365 40.0712 41.1493 39.8736L39.4122 38.0388V34.9588C39.5959 34.8067 39.7769 34.6504 39.9523 34.4852C42.1438 32.4202 43.4006 29.5047 43.4006 26.4863V24.0266C44.0623 22.5789 44.3976 21.0471 44.3976 19.4694V9.44568C44.3976 8.92793 43.9801 8.50818 43.4651 8.50818H29.5059C24.5934 8.50818 20.5968 12.5262 20.5968 17.4648V19.4697C20.5968 21.0473 20.9322 22.5792 21.5939 24.0268V26.1432C21.5939 29.6477 23.1439 32.8049 25.5822 34.8864V38.0389L23.8451 39.8737C23.658 40.0713 23.5715 40.3336 23.591 40.5914L17.8535 42.6888C17.4377 42.8408 17.0514 43.0467 16.7006 43.2961L15.7997 42.8432C18.4816 41.6696 19.3312 40.0189 19.372 39.9369C19.5033 39.6731 19.5033 39.3623 19.372 39.0984C18.6997 37.7467 18.6183 35.2691 18.5529 33.2783C18.5311 32.6156 18.5105 31.9894 18.471 31.4319C18.1531 26.9352 14.7527 23.5441 10.5613 23.5441C6.36995 23.5441 2.96946 26.9351 2.65166 31.4319C2.61224 31.9896 2.5916 32.6157 2.56985 33.2786C2.50444 35.2692 2.42288 37.7466 1.75071 39.0983C1.61941 39.3622 1.61941 39.6729 1.75071 39.9368C1.7915 40.0188 2.63935 41.6661 5.32664 42.8411L2.82411 44.0989C1.48625 44.7719 0.655182 46.1238 0.655182 47.6274V54.5536C0.655182 55.0713 1.07271 55.4911 1.58771 55.4911C2.10271 55.4911 2.52023 55.0713 2.52023 54.5536V47.6274C2.52023 46.8384 2.95628 46.1291 3.65817 45.7762L6.77442 44.2098L7.85839 45.2454C8.61635 45.9696 9.58866 46.3314 10.5613 46.3314C11.5338 46.3314 12.5066 45.9693 13.2643 45.2454L14.3482 44.2099L15.3642 44.7207C14.8858 45.4903 14.6142 46.3928 14.6142 47.3382V54.5538C14.6142 55.0716 15.0318 55.4913 15.5468 55.4913C16.0618 55.4913 16.4793 55.0716 16.4793 54.5538V47.3382C16.4793 46.0512 17.2876 44.8909 18.4908 44.4511L24.54 42.2397L27.0582 46.0373C27.3801 46.5228 27.896 46.8342 28.4736 46.8917C28.538 46.8981 28.602 46.9012 28.6659 46.9012C29.1754 46.9012 29.6635 46.6996 30.0283 46.3329L31.5646 44.7884V54.5539C31.5646 55.0717 31.9821 55.4914 32.4971 55.4914C33.0121 55.4914 33.4296 55.0717 33.4296 54.5539V44.7884L34.9659 46.3329C35.3306 46.6997 35.8186 46.9013 36.3283 46.9013C36.3921 46.9013 36.4562 46.8982 36.5205 46.8918C37.0982 46.8343 37.6141 46.5229 37.936 46.0374L40.4543 42.2399L46.5034 44.4513C47.7065 44.8912 48.5149 46.0514 48.5149 47.3384V54.5541C48.5149 55.0718 48.9325 55.4916 49.4475 55.4916C49.9625 55.4916 50.38 55.0718 50.38 54.5541V47.3384C50.38 46.0349 49.8649 44.8124 49.0007 43.9083L49.2311 43.8422C49.4635 43.7754 49.7806 43.6841 50.0989 43.5272L52.4798 45.9208V54.5541C52.4798 55.0718 52.8973 55.4916 53.4123 55.4916C53.9273 55.4916 54.3448 55.0718 54.3448 54.5541V45.9208L56.7092 43.5438C56.8349 43.6081 56.967 43.6623 57.106 43.7022L60.9574 44.8084C61.8365 45.0609 62.4506 45.8793 62.4506 46.7986V54.5541C62.4506 55.0718 62.8681 55.4916 63.3831 55.4916C63.8981 55.4916 64.3157 55.0718 64.3157 54.5541V46.7986C64.3157 45.0463 63.1454 43.4864 61.4698 43.0051ZM6.63765 41.3492C4.89333 40.7182 4.01837 39.8769 3.64486 39.4176C3.8995 38.7483 4.06462 37.9818 4.1764 37.1727C4.69066 38.4123 5.55194 39.4706 6.63765 40.2256V41.3492ZM11.9798 43.8864C11.1844 44.6462 9.93842 44.6461 9.14329 43.8863L8.27604 43.0578C8.42238 42.7822 8.50283 42.4697 8.50283 42.1423V41.1431C9.15336 41.3474 9.84492 41.4577 10.5616 41.4577C11.2774 41.4577 11.9686 41.3469 12.6202 41.1437L12.6201 42.1422C12.6201 42.4697 12.7004 42.7823 12.8469 43.0581L11.9798 43.8864ZM10.5618 39.5827C7.7772 39.5827 5.5119 37.3052 5.5119 34.5058C5.5119 33.9881 5.09438 33.5683 4.57938 33.5683C4.52716 33.5683 4.47618 33.5737 4.42632 33.5821C4.42905 33.5014 4.43167 33.4207 4.4344 33.3408C4.45517 32.6962 4.47518 32.0873 4.51211 31.5651C4.63123 29.8806 5.30078 28.3283 6.39743 27.1941C7.50391 26.0496 8.98277 25.4193 10.5616 25.4193C12.1404 25.4193 13.6192 26.0496 14.7258 27.1941C15.8224 28.3283 16.492 29.8806 16.6111 31.5651C16.6479 32.0872 16.668 32.6959 16.6892 33.3404C16.691 33.3958 16.6929 33.4519 16.6948 33.5077C15.6802 31.9362 14.1133 30.7781 12.0887 30.1241C10.2183 29.5199 8.60963 29.5573 8.54175 29.5591C8.29755 29.5659 8.06578 29.6687 7.89631 29.8454L6.21379 31.5997C5.85632 31.9724 5.86701 32.5659 6.23778 32.9253C6.60856 33.2847 7.19891 33.2738 7.55638 32.9012L8.95641 31.4416C10.1621 31.5008 14.041 31.9543 15.5496 35.2939C15.17 37.7549 13.066 39.5827 10.5618 39.5827ZM14.485 41.3523L14.4852 40.2342C15.57 39.4833 16.4325 38.4271 16.9472 37.1781C17.0589 37.9853 17.2239 38.7501 17.4781 39.4178C17.1067 39.8728 16.2276 40.7216 14.485 41.3523ZM23.4589 26.1431V23.8171C23.4589 23.6759 23.4272 23.5366 23.3662 23.4094C22.7661 22.1602 22.4619 20.8347 22.4619 19.4697V17.4649C22.4619 13.5601 25.6219 10.3833 29.5059 10.3833H42.5326V19.4698C42.5326 20.8348 42.2283 22.1603 41.6283 23.4096C41.5672 23.5367 41.5355 23.6761 41.5355 23.8172V26.4866C41.5355 29.0254 40.5203 31.3803 38.6769 33.1174C38.4468 33.3342 38.2079 33.5374 37.961 33.7268C37.9555 33.7306 37.9503 33.7347 37.9449 33.7386C36.218 35.0567 34.1028 35.6973 31.8938 35.5534C27.1639 35.2456 23.4589 31.1121 23.4589 26.1431ZM28.7096 45.0069C28.7031 45.0134 28.688 45.0288 28.6576 45.0256C28.6272 45.0226 28.6153 45.0047 28.6102 44.9969L25.7101 40.6234L26.6433 39.6376L31.043 42.6609L28.7096 45.0069ZM32.4972 41.3891L27.4473 37.9188V36.1688C28.7539 36.8789 30.217 37.3231 31.7731 37.4243C32.0189 37.4403 32.2632 37.4482 32.5068 37.4482C34.2899 37.4482 36.006 37.0197 37.5472 36.2063V37.9188L32.4972 41.3891ZM36.3843 44.9972C36.3792 45.0049 36.3672 45.0228 36.3369 45.0258C36.3064 45.0297 36.2915 45.0136 36.2849 45.0072L33.9515 42.6613L38.3511 39.6378L39.2845 40.6237L36.3843 44.9972ZM53.4123 44.2062L51.2961 42.0788C51.333 41.9102 51.3539 41.7256 51.3538 41.5219L51.3537 41.1263C51.9409 41.3201 52.5599 41.4351 53.2003 41.4543C53.2722 41.4566 53.3434 41.4576 53.415 41.4576C54.1228 41.4576 54.8136 41.3501 55.4711 41.1449V41.5224C55.4711 41.7094 55.4945 41.8927 55.5385 42.0688L53.4123 44.2062ZM56.9289 38.1494C55.9406 39.1137 54.6349 39.6229 53.2564 39.5802C50.5578 39.4988 48.3624 37.1092 48.3624 34.2536V32.5009C48.3624 32.3553 48.3287 32.2118 48.2639 32.0817L47.6878 30.9234C47.4768 30.4991 47.3653 30.0241 47.3653 29.5496V29.4937C47.3653 27.2469 49.1835 25.4192 51.4182 25.4192H59.4594V29.3129C59.4594 29.9422 59.3115 30.5723 59.0316 31.1352L58.5609 32.0817C58.4961 32.2119 58.4624 32.3553 58.4624 32.5009V34.5057C58.4624 35.8907 57.9178 37.1847 56.9289 38.1494Z" fill="#446D91"/>
<path d="M59.3942 47.6018C58.8792 47.6018 58.4616 48.0216 58.4616 48.5393V54.5537C58.4616 55.0714 58.8792 55.4912 59.3942 55.4912C59.9092 55.4912 60.3267 55.0714 60.3267 54.5537V48.5393C60.3267 48.0217 59.9092 47.6018 59.3942 47.6018Z" fill="#446D91"/>
<path d="M5.57669 48.8409C5.06169 48.8409 4.64417 49.2607 4.64417 49.7784V54.5536C4.64417 55.0713 5.06169 55.4911 5.57669 55.4911C6.09169 55.4911 6.50922 55.0713 6.50922 54.5536V49.7784C6.50922 49.2608 6.09169 48.8409 5.57669 48.8409Z" fill="#446D91"/>
<path d="M40.1354 19.8093C36.6084 16.2636 29.2291 16.9414 26.2199 17.3974C25.2721 17.5411 24.5843 18.3474 24.5843 19.3148V21.4746C24.5843 21.9923 25.0018 22.4121 25.5168 22.4121C26.0318 22.4121 26.4493 21.9923 26.4493 21.4746V19.3147C26.4493 19.2828 26.4702 19.2556 26.4981 19.2513C27.7 19.0692 30.0852 18.7882 32.5564 18.9538C35.4644 19.1484 37.5707 19.8823 38.8166 21.1351C39.1808 21.5012 39.7713 21.5012 40.1354 21.1351C40.4995 20.7689 40.4995 20.1753 40.1354 19.8093Z" fill="#446D91"/>
<path d="M21.5288 49.6066C21.0138 49.6066 20.5963 50.0263 20.5963 50.5441V54.5537C20.5963 55.0714 21.0138 55.4912 21.5288 55.4912C22.0438 55.4912 22.4613 55.0714 22.4613 54.5537V50.5441C22.4613 50.0264 22.0438 49.6066 21.5288 49.6066Z" fill="#446D91"/>
<path d="M43.4648 49.6066C42.9497 49.6066 42.5322 50.0263 42.5322 50.5441V54.5537C42.5322 55.0714 42.9497 55.4912 43.4648 55.4912C43.9798 55.4912 44.3973 55.0714 44.3973 54.5537V50.5441C44.3973 50.0264 43.9798 49.6066 43.4648 49.6066Z" fill="#446D91"/>
</g>
<defs>
<clipPath id="clip0">
<rect x="0.655182" width="63.6605" height="64" fill="white"/>
</clipPath>
</defs>
</svg>
